<?xml version="1.0" encoding="UTF-8"?>
<svg width="14px" height="12px" class="icon" viewBox="0 0 14 12" version="1.1" xmlns="http://www.w3.org/2000/svg" xmlns:xlink="http://www.w3.org/1999/xlink">
    <!-- Generator: Sketch 48.2 (47327) - http://www.bohemiancoding.com/sketch -->
    <title>account_icon</title>
    <desc>Created with Sketch.</desc>
    <defs></defs>
    <g id="Artboard" stroke="none" stroke-width="1" fill-rule="evenodd" transform="translate(-18.000000, -92.000000)">
        <path d="M28.1339884,99.793567 L29.746189,99.793567 L29.746189,99.0534354 L28.1339884,99.0534354 L28.1339884,99.793567 Z M26.7328003,97.9950658 L29.746189,97.9950658 L29.746189,97.2549342 L26.7328003,97.2549342 L26.7328003,97.9950658 Z M26.7328003,96.1965646 L29.746189,96.1965646 L29.746189,95.456433 L26.7328003,95.456433 L26.7328003,96.1965646 Z M21.4111748,96.2616776 C21.4111748,95.6088631 21.9520592,95.0774671 22.6165303,95.0774671 C23.2809259,95.0774671 23.8218857,95.6088631 23.8218857,96.2616776 C23.8218857,96.9145107 23.2809259,97.4458882 22.6165303,97.4458882 C21.9520592,97.4458882 21.4111748,96.9145107 21.4111748,96.2616776 L21.4111748,96.2616776 Z M22.6165303,98.9172697 C23.7359665,98.9172697 24.6912483,99.7521567 25.0377692,100.911221 L25.8167113,100.911221 C25.4476089,99.3864947 24.2271865,98.2511513 22.7596285,98.1815419 C23.7751782,98.1090461 24.5752329,97.2771197 24.5752329,96.2616776 C24.5752329,95.1988302 23.6982991,94.3373355 22.6165303,94.3373355 C21.5347049,94.3373355 20.6578276,95.1988302 20.6578276,96.2616776 C20.6578276,97.2771197 21.4579011,98.1090461 22.4733755,98.1815419 C21.0043485,98.2511513 19.7839072,99.3864947 19.4162738,100.912664 L20.1952348,100.912664 C20.5418122,99.7521567 21.4970375,98.9172697 22.6165303,98.9172697 L22.6165303,98.9172697 Z M18.7533472,102.509868 L30.7466528,102.509868 L30.7466528,92.7401316 L18.7533472,92.7401316 L18.7533472,102.509868 Z M18,103.25 L31.5,103.25 L31.5,92 L18,92 L18,103.25 Z" id="account_icon"></path>
    </g>
</svg>