<?xml version="1.0" encoding="UTF-8"?>
<svg width="13px" height="12px" viewBox="0 0 13 12" version="1.1" xmlns="http://www.w3.org/2000/svg" xmlns:xlink="http://www.w3.org/1999/xlink">
    <!-- Generator: Sketch 48.2 (47327) - http://www.bohemiancoding.com/sketch -->
    <title>content</title>
    <desc>Created with Sketch.</desc>
    <defs></defs>
    <g id="Artboard" stroke="none" stroke-width="1" fill-rule="evenodd" transform="translate(-72.000000, -92.000000)">
        <g id="content" transform="translate(72.000000, 92.000000)">
            <path d="M7.96547346,8.21888382 C7.99969902,8.21888382 8.03433415,8.21484923 8.06891585,8.20606016 L10.856999,7.50358807 C11.0693684,7.45025101 11.1954082,7.24472088 11.1385674,7.04506686 C11.0813883,6.84507802 10.8631959,6.72691954 10.6508265,6.78032356 L7.86279679,7.48272869 C7.65044518,7.53618293 7.52438757,7.74162936 7.58115712,7.94130012 C7.62900524,8.10884476 7.78969797,8.21888382 7.96547346,8.21888382 L7.96547346,8.21888382 Z M7.96547346,6.34662936 C7.99969902,6.34662936 8.03433415,6.34266173 8.06891585,6.3338057 L10.856999,5.63140057 C11.0693684,5.57799655 11.1954082,5.37253338 11.1385674,5.17286262 C11.0813883,4.9728403 10.8631959,4.85431351 10.6508265,4.90806909 L7.86279679,5.61054119 C7.65044518,5.66392847 7.52438757,5.86944186 7.58115712,6.06911262 C7.62900524,6.2365903 7.78969797,6.34662936 7.96547346,6.34662936 L7.96547346,6.34662936 Z M7.96547346,4.4744586 C7.99969902,4.4744586 8.03433415,4.47039052 8.06891585,4.4616182 L10.856999,3.75916284 C11.0693684,3.70579231 11.1954082,3.50027891 11.1385674,3.30060815 C11.0813883,3.1006528 10.8631959,2.98174097 10.6508265,3.03588159 L7.86279679,3.73835369 C7.65044518,3.79172423 7.52438757,3.99720414 7.58115712,4.19690838 C7.62900524,4.36438606 7.78969797,4.4744586 7.96547346,4.4744586 L7.96547346,4.4744586 Z M11.9487978,9.0742019 L6.77099791,10.3785657 L6.77099791,2.16737155 L11.9487978,0.863074673 L11.9487978,9.0742019 Z M5.97439001,10.3785657 L0.796572277,9.0742019 L0.796572277,0.863074673 L5.97439001,2.16737155 L5.97439001,10.3785657 Z M12.5893785,0.0779519048 C12.4913673,0.00668516375 12.3622647,-0.017857247 12.2440244,0.0132309227 L6.37270286,1.49238829 L0.501381285,0.0132309227 C0.383141061,-0.0174387202 0.253967179,0.00668516375 0.155938198,0.0779519048 C0.0575708799,0.148532262 0,0.258638289 0,0.374921771 L0,9.36161262 C0,9.53089833 0.120964735,9.67940838 0.295208799,9.72321976 L6.26961662,11.228376 C6.3034148,11.2371149 6.33804993,11.2411662 6.37270286,11.2411662 C6.40726676,11.2411662 6.44190189,11.2371149 6.47571788,11.228376 L12.4501257,9.72321976 C12.6243698,9.67940838 12.7453345,9.53089833 12.7453345,9.36161262 L12.7453345,0.374921771 C12.7454057,0.258571324 12.6877992,0.148532262 12.5893785,0.0779519048 L12.5893785,0.0779519048 Z M1.88838897,7.50358807 L4.67640084,8.20606016 C4.71107158,8.21484923 4.74563547,8.21888382 4.77991446,8.21888382 C4.95568994,8.21888382 5.11636487,8.10884476 5.16417737,7.94136708 C5.22092912,7.74169632 5.09496054,7.53618293 4.88259113,7.48279565 L2.09450803,6.78032356 C1.88288652,6.72728784 1.66392842,6.84507802 1.6067493,7.04513382 C1.54999756,7.2447711 1.67603736,7.45025101 1.88838897,7.50358807 L1.88838897,7.50358807 Z M1.88838897,5.63140057 L4.67640084,6.3338057 C4.71107158,6.34266173 4.74563547,6.34662936 4.77991446,6.34662936 C4.95568994,6.34662936 5.11636487,6.2365903 5.16417737,6.06911262 C5.22092912,5.86944186 5.09496054,5.66392847 4.88259113,5.61054119 L2.09450803,4.90806909 C1.88288652,4.8547153 1.66392842,4.9728403 1.6067493,5.17286262 C1.54999756,5.37253338 1.67603736,5.57804677 1.88838897,5.63140057 L1.88838897,5.63140057 Z M1.88838897,3.75916284 L4.67640084,4.4616182 C4.71107158,4.47039052 4.74563547,4.47439164 4.77991446,4.47439164 C4.95568994,4.47439164 5.11636487,4.36431909 5.16417737,4.19685815 C5.22092912,3.99720414 5.09496054,3.79172423 4.88259113,3.73828673 L2.09450803,3.03581463 C1.88288652,2.98212601 1.66392842,3.10058583 1.6067493,3.30060815 C1.54999756,3.50027891 1.67603736,3.70579231 1.88838897,3.75916284 L1.88838897,3.75916284 Z" id="Fill-1"></path>
        </g>
    </g>
</svg>