<?xml version="1.0" encoding="utf-8"?>
<!-- Svg Vector Icons : http://www.sfont.cn -->
<!DOCTYPE svg PUBLIC "-//W3C//DTD SVG 1.1//EN" "http://www.w3.org/Graphics/SVG/1.1/DTD/svg11.dtd">
<svg version="1.1" xmlns="http://www.w3.org/2000/svg" xmlns:xlink="http://www.w3.org/1999/xlink" x="0px" y="0px" viewBox="0 0 1000 1000" enable-background="new 0 0 1000 1000" xml:space="preserve">
<metadata> Svg Vector Icons : http://www.sfont.cn </metadata>
<g><path d="M453.4,925.7c-1.4,0-2.8-0.1-4.1-0.4c-7.1-1.3-13.1-6-16.1-12.6l-106.9-234L19.5,465c-6.8-4.7-10.4-12.8-9.3-21s6.5-15.1,14.2-18L960.1,75.7c7.7-2.9,16.3-1.3,22.5,4.2c6.1,5.4,8.8,13.8,6.8,21.8L794.3,908.7c-1.6,6.6-6.1,12.1-12.3,14.9c-6.2,2.8-13.3,2.7-19.3-0.4L567.6,824l-98.7,95.4C464.7,923.5,459.1,925.7,453.4,925.7z M563.5,774.9c3.4,0,6.9,0.8,10,2.4L757.8,871l178.7-739.2L79.5,452.7l277.2,193.1c3.3,2.3,5.8,5.4,7.5,9l96.3,210.9l87.6-84.6C552.3,777.1,557.9,774.9,563.5,774.9z"/><path d="M317.4,575.4c-2.5,0-5-0.7-7.2-2.1l-153.7-99.8c-4.3-2.8-6.6-7.7-6-12.7c0.6-5,4-9.3,8.8-11l318.5-111.6c6.9-2.4,14.5,1.2,17,8.2c2.4,6.9-1.2,14.5-8.2,17l-293,102.6l131,85c6.2,4,7.9,12.2,3.9,18.4C326.1,573.2,321.8,575.4,317.4,575.4z"/><path d="M729.2,806c-2.1,0-4.2-0.5-6.1-1.5l-136.9-71c-6.5-3.4-9.1-11.4-5.7-17.9c3.4-6.5,11.4-9.1,17.9-5.7l136.9,71c6.5,3.4,9.1,11.4,5.7,17.9C738.7,803.4,734.1,806,729.2,806z"/><path d="M453.4,916.8c-6.7,0-12.5-5.1-13.2-12l-25.1-251.3c-0.4-3.9,1-7.8,3.7-10.6l345.9-363.6c5.1-5.3,13.5-5.4,18.8-0.3c5.3,5.1,5.4,13.5,0.3,18.8L442.2,657.1l24.5,245.1c0.7,7.3-4.6,13.8-11.9,14.6C454.3,916.8,453.9,916.8,453.4,916.8z"/></g>
</svg>